<svg xmlns="http://www.w3.org/2000/svg" xmlns:xlink="http://www.w3.org/1999/xlink" width="1080" zoomAndPan="magnify" viewBox="0 0 810 809.999993" height="1080" preserveAspectRatio="xMidYMid meet" version="1.0"><path fill="#f7931a" d="M 761.113281 493.8125 C 712.078125 690.496094 512.871094 810.195312 316.164062 761.148438 C 119.539062 712.113281 -0.160156 512.894531 48.898438 316.222656 C 97.910156 119.515625 297.117188 -0.195312 493.765625 48.839844 C 690.460938 97.875 810.148438 297.117188 761.113281 493.8125 Z M 761.113281 493.8125 " fill-opacity="1" fill-rule="nonzero"/><path fill="#ffffff" d="M 566.875 352.695312 C 574.183594 303.84375 536.988281 277.578125 486.125 260.058594 L 502.625 193.882812 L 462.34375 183.84375 L 446.28125 248.277344 C 435.691406 245.640625 424.8125 243.148438 414.007812 240.683594 L 430.183594 175.824219 L 389.925781 165.785156 L 373.414062 231.941406 C 364.648438 229.945312 356.042969 227.96875 347.691406 225.894531 L 347.738281 225.6875 L 292.183594 211.816406 L 281.46875 254.839844 C 281.46875 254.839844 311.355469 261.691406 310.726562 262.113281 C 327.039062 266.1875 329.988281 276.984375 329.496094 285.542969 L 310.703125 360.933594 C 311.828125 361.21875 313.285156 361.632812 314.890625 362.273438 C 313.546875 361.941406 312.113281 361.574219 310.632812 361.21875 L 284.292969 466.828125 C 282.296875 471.785156 277.234375 479.21875 265.832031 476.398438 C 266.234375 476.980469 236.550781 469.089844 236.550781 469.089844 L 216.554688 515.199219 L 268.976562 528.265625 C 278.726562 530.710938 288.285156 533.269531 297.691406 535.679688 L 281.023438 602.613281 L 321.257812 612.652344 L 337.769531 546.429688 C 348.757812 549.410156 359.429688 552.164062 369.871094 554.757812 L 353.417969 620.671875 L 393.699219 630.710938 L 410.371094 563.902344 C 479.058594 576.902344 530.710938 571.65625 552.453125 509.53125 C 569.972656 459.507812 551.582031 430.652344 515.441406 411.839844 C 541.757812 405.769531 561.585938 388.457031 566.875 352.695312 Z M 474.835938 481.753906 C 462.386719 531.777344 378.164062 504.734375 350.859375 497.953125 L 372.980469 409.28125 C 400.285156 416.09375 487.847656 429.585938 474.835938 481.753906 Z M 487.296875 351.972656 C 475.9375 397.472656 405.835938 374.355469 383.097656 368.6875 L 403.152344 288.261719 C 425.890625 293.929688 499.125 304.507812 487.296875 351.972656 Z M 487.296875 351.972656 " fill-opacity="1" fill-rule="nonzero"/></svg>
