<svg xmlns="http://www.w3.org/2000/svg" xmlns:xlink="http://www.w3.org/1999/xlink" width="1080" zoomAndPan="magnify" viewBox="0 0 810 809.999993" height="1080" preserveAspectRatio="xMidYMid meet" version="1.0"><path stroke-linecap="round" transform="matrix(12.185096, 0, 0, 12.184542, 1.67329, 0.00002)" fill="none" stroke-linejoin="round" d="M 44.500008 10.349946 C 44.145771 10.145409 43.786405 9.949528 43.422552 9.762624 C 43.058698 9.57572 42.690356 9.397792 42.317846 9.228841 C 41.945016 9.06021 41.56834 8.900556 41.187816 8.750199 C 40.807292 8.599842 40.423563 8.458782 40.035986 8.32734 C 39.64873 8.195577 39.258269 8.073753 38.864601 7.961225 C 38.471254 7.849019 38.075343 7.74643 37.676867 7.653458 C 37.278391 7.560487 36.877991 7.477454 36.475348 7.404039 C 36.073025 7.330944 35.668779 7.267467 35.26325 7.214249 C 34.857401 7.16071 34.45091 7.117431 34.043137 7.083769 C 33.635365 7.050427 33.226951 7.027024 32.817896 7.013559 C 32.409161 7.000095 32.000106 6.996889 31.591051 7.003621 C 31.181996 7.010353 30.773262 7.027024 30.364848 7.053633 C 29.956754 7.080563 29.549302 7.11711 29.142812 7.163916 C 28.736321 7.210723 28.331113 7.267467 27.927508 7.33415 C 27.523903 7.400512 27.122221 7.477133 26.722142 7.563372 C 26.322063 7.649932 25.924549 7.746109 25.529279 7.851904 C 25.134329 7.957699 24.741944 8.073432 24.352444 8.198462 C 23.962623 8.323493 23.57665 8.458141 23.193561 8.602406 C 22.810794 8.746352 22.431552 8.899915 22.056158 9.062454 C 21.680763 9.225314 21.309536 9.397151 20.942476 9.577964 C 20.575737 9.759097 20.213486 9.948887 19.855724 10.147653 C 19.497961 10.346419 19.145648 10.553842 18.798143 10.76992 C 18.450639 10.985998 18.108584 11.210411 17.7723 11.44316 C 17.435695 11.675909 17.105181 11.916993 16.780758 12.166092 C 16.456014 12.415191 16.137682 12.671984 15.825762 12.936792 C 15.513841 13.201279 15.208332 13.47346 14.909876 13.753336 C 14.611099 14.032891 14.319696 14.31982 14.035024 14.613801 C 13.750673 14.907783 13.473375 15.208497 13.20377 15.516264 C 12.933845 15.82371 12.671614 16.137889 12.417397 16.458159 C 12.163181 16.77875 11.916658 17.105111 11.67847 17.437884 C 11.439961 17.770336 11.210108 18.10856 10.988269 18.452553 C 10.766751 18.796226 10.553568 19.14535 10.34872 19.499923 C 10.144193 19.854176 9.948641 20.213237 9.761425 20.577107 C 9.574529 20.940978 9.396609 21.309336 9.227986 21.682183 C 9.059043 22.05471 8.899396 22.431404 8.749046 22.811945 C 8.598695 23.192486 8.457642 23.576233 8.326206 23.963827 C 8.19477 24.3511 8.07263 24.74158 7.960428 25.134944 C 7.847906 25.52863 7.745322 25.924559 7.652355 26.322732 C 7.559388 26.721227 7.476359 27.121965 7.403267 27.524306 C 7.329855 27.926968 7.266702 28.330912 7.213166 28.73678 C 7.159629 29.142327 7.116352 29.549157 7.083012 29.956627 C 7.049351 30.364418 7.025949 30.772851 7.012806 31.181925 C 6.999341 31.590678 6.995815 31.999751 7.002547 32.408825 C 7.009279 32.817898 7.025949 33.226652 7.052878 33.634763 C 7.079485 34.043196 7.116352 34.450667 7.163156 34.857175 C 7.209639 35.263364 7.266381 35.66859 7.333061 36.072214 C 7.399741 36.475837 7.476359 36.877858 7.562594 37.277635 C 7.649149 37.677732 7.745001 38.075264 7.851112 38.470232 C 7.956902 38.86552 8.072309 39.257923 8.197655 39.64744 C 8.322679 40.036958 8.457321 40.42327 8.601581 40.806055 C 8.745519 41.189161 8.899075 41.568419 9.061928 41.943511 C 9.22446 42.318922 9.396289 42.690166 9.577414 43.057242 C 9.758219 43.423998 9.948 43.786265 10.146757 44.144045 C 10.345514 44.501824 10.552927 44.854153 10.768995 45.201673 C 10.985064 45.549193 11.209467 45.890943 11.442526 46.227563 C 11.675264 46.563863 11.916337 46.894391 12.165425 47.21915 C 12.414192 47.543587 12.671294 47.861934 12.935769 48.173869 C 13.200565 48.485803 13.472734 48.791326 13.752597 49.089796 C 14.032139 49.388587 14.319054 49.680003 14.613023 49.964688 C 14.906991 50.249052 15.208012 50.526363 15.515444 50.795979 C 15.823197 51.065917 16.137041 51.327839 16.457617 51.582388 C 16.778193 51.836616 17.10454 52.08283 17.437298 52.32135 C 17.769735 52.559548 18.107943 52.789732 18.451921 53.011261 C 18.795578 53.233109 19.144686 53.446302 19.499243 53.650839 C 19.853479 53.855376 20.212525 54.051257 20.576378 54.238161 C 20.940553 54.425065 21.308895 54.602993 21.681404 54.771624 C 22.054234 54.940575 22.43059 55.100229 22.811114 55.250586 C 23.191638 55.400943 23.575688 55.542003 23.963264 55.673445 C 24.35052 55.804887 24.740982 55.927032 25.134329 56.039239 C 25.527996 56.151446 25.923908 56.254355 26.322384 56.347006 C 26.72086 56.439977 27.121259 56.52301 27.523903 56.596425 C 27.926226 56.66952 28.330472 56.732997 28.736001 56.786215 C 29.14185 56.839754 29.54834 56.883033 29.956113 56.916695 C 30.363886 56.950037 30.7723 56.97344 31.181355 56.986905 C 31.590089 57.00037 31.999144 57.003576 32.408199 56.996843 C 32.817255 56.990111 33.225989 56.97344 33.634403 56.946831 C 34.042496 56.919901 34.449948 56.883033 34.856439 56.836548 C 35.262929 56.789742 35.667817 56.732997 36.071743 56.666314 C 36.475348 56.599631 36.87703 56.52301 37.277109 56.436771 C 37.676867 56.350212 38.074702 56.254355 38.469652 56.14824 C 38.864922 56.042445 39.257307 55.927032 39.646807 55.801681 C 40.036307 55.676651 40.422601 55.542003 40.805689 55.397737 C 41.188457 55.253792 41.567698 55.100229 41.943093 54.93769 C 42.318488 54.77483 42.689715 54.602993 43.056454 54.421859 C 43.423513 54.241046 43.785764 54.051257 44.143527 53.85249 C 44.500969 53.653724 44.853603 53.446302 45.201107 53.230224 C 45.548612 53.014146 45.890346 52.789732 46.226951 52.556984 C 46.563235 52.323914 46.893749 52.083151 47.218493 51.834052 C 47.542916 51.584953 47.861248 51.327839 48.173168 51.063352 C 48.485409 50.798544 48.790598 50.526363 49.089054 50.246808 C 49.387831 49.966932 49.679234 49.680003 49.963906 49.386022 C 50.248577 49.09204 50.525555 48.791326 50.79548 48.483559 C 51.065085 48.176113 51.327316 47.861934 51.581533 47.541664 C 51.835749 47.221073 52.082272 46.894712 52.32046 46.561939 C 52.558969 46.229487 52.788822 45.891263 53.010661 45.54727 C 53.232179 45.203276 53.445362 44.854473 53.649889 44.4999 C 53.854417 44.145647 54.050289 43.786586 54.237185 43.422716 C 54.424081 43.058845 54.602 42.690487 54.770944 42.31764 C 54.939887 41.945113 55.099214 41.568419 55.249884 41.187878 C 55.400235 40.807337 55.540968 40.42359 55.672404 40.035996 C 55.80416 39.648723 55.925979 39.258243 56.038181 38.864879 C 56.150703 38.471514 56.253288 38.075585 56.346255 37.677091 C 56.439222 37.278596 56.522251 36.878179 56.595342 36.475517 C 56.668754 36.073176 56.731908 35.668911 56.785444 35.263364 C 56.838659 34.857817 56.882258 34.450987 56.915598 34.043196 C 56.948938 33.635405 56.97234 33.227293 56.985804 32.818219 C 56.999268 32.409466 57.002474 32.000392 56.996062 31.591319 C 56.98933 31.182245 56.97234 30.773492 56.945732 30.36538 C 56.919124 29.956948 56.882258 29.549798 56.835454 29.143289 C 56.78865 28.73678 56.731908 28.331874 56.665228 27.92793 C 56.598868 27.524306 56.522251 27.122606 56.436016 26.72283 C 56.34946 26.322732 56.253288 25.9252 56.147497 25.529912 C 56.041707 25.134944 55.925979 24.742541 55.800955 24.353024 C 55.67593 23.963506 55.541288 23.577194 55.397029 23.194409 C 55.25277 22.811303 55.099534 22.432365 54.936682 22.056954 C 54.77415 21.681542 54.602321 21.310298 54.421195 20.943542 C 54.24039 20.576466 54.050609 20.214199 53.851852 19.85642 C 53.653095 19.498961 53.445682 19.146311 53.229614 18.798791 C 53.013546 18.451592 52.789143 18.109521 52.556404 17.773222 C 52.323346 17.436602 52.082593 17.106073 51.833505 16.781635 C 51.584418 16.457197 51.327636 16.138851 51.062841 15.826916 C 50.798045 15.514661 50.525876 15.209459 50.246333 14.910989 C 49.966791 14.612198 49.679876 14.320781 49.385907 14.036097 C 49.091939 13.751733 48.790918 13.474422 48.483486 13.204805 C 48.175733 12.934868 47.861889 12.672946 47.541313 12.418397 C 47.221057 12.164168 46.89439 11.917955 46.561953 11.679435 C 46.229195 11.441236 45.890987 11.211052 45.54733 10.989524 C 45.203352 10.767676 44.854244 10.554483 44.500008 10.349946 Z M 44.500008 10.349946 " stroke="#ffffff" stroke-width="1.72" stroke-opacity="1" stroke-miterlimit="4"/><path stroke-linecap="round" transform="matrix(12.185096, 0, 0, 12.184542, 1.67329, 0.00002)" fill="none" stroke-linejoin="round" d="M 46.500082 6.890132 C 46.089103 6.652574 45.672354 6.425276 45.250156 6.208556 C 44.828278 5.991516 44.40095 5.785056 43.968493 5.589175 C 43.536356 5.392974 43.099411 5.207672 42.658298 5.033271 C 42.216865 4.85887 41.771264 4.695048 41.321817 4.542447 C 40.872369 4.389846 40.419716 4.248145 39.963215 4.117985 C 39.507036 3.987505 39.04765 3.868245 38.585379 3.760526 C 38.123109 3.652487 37.658594 3.55599 37.191515 3.471033 C 36.724756 3.386076 36.256074 3.312341 35.785468 3.250467 C 35.314863 3.188272 34.842975 3.137939 34.370125 3.098827 C 33.896955 3.060036 33.423143 3.032786 32.949011 3.017077 C 32.474559 3.001688 32.000106 2.997521 31.525333 3.005215 C 31.05088 3.012909 30.576748 3.032144 30.103258 3.063242 C 29.629446 3.094339 29.156917 3.136657 28.68535 3.190837 C 28.213782 3.245017 27.743818 3.310738 27.275777 3.388 C 26.807415 3.465262 26.341298 3.553745 25.877104 3.65409 C 25.41323 3.754115 24.951921 3.86568 24.493497 3.988466 C 24.035074 4.111252 23.579856 4.244939 23.127843 4.390166 C 22.676152 4.535394 22.227986 4.691522 21.783668 4.858549 C 21.33967 5.025577 20.899519 5.203505 20.464177 5.392333 C 20.028514 5.58084 19.59798 5.780247 19.172255 5.990234 C 18.74653 6.1999 18.326255 6.420146 17.91143 6.650651 C 17.496284 6.881155 17.087549 7.121598 16.684265 7.3723 C 16.281301 7.622682 15.884427 7.883001 15.494286 8.153259 C 15.103825 8.423196 14.720416 8.702751 14.343739 8.991604 C 13.967062 9.280456 13.598079 9.578284 13.235828 9.88541 C 12.873898 10.192536 12.519661 10.507997 12.173439 10.832435 C 11.826896 11.156873 11.488689 11.489646 11.158495 11.830754 C 10.828302 12.171542 10.506764 12.520665 10.193882 12.877482 C 9.880679 13.2343 9.576773 13.598491 9.281522 13.970376 C 8.986592 14.34194 8.700639 14.720558 8.423981 15.106549 C 8.147645 15.49222 7.880605 15.884622 7.623503 16.283437 C 7.36608 16.682252 7.118916 17.087158 6.881369 17.498155 C 6.644143 17.909152 6.416855 18.32592 6.200145 18.748138 C 5.983115 19.170356 5.776664 19.597382 5.580792 20.029859 C 5.38492 20.462015 5.199627 20.89898 5.025234 21.340434 C 4.850841 21.781566 4.687026 22.227187 4.534432 22.676655 C 4.381838 23.126123 4.240464 23.578797 4.109989 24.035318 C 3.979515 24.491519 3.860581 24.950925 3.752547 25.413217 C 3.644834 25.875509 3.54834 26.340044 3.463388 26.806824 C 3.378435 27.273925 3.305023 27.742628 3.242831 28.213255 C 3.18096 28.683882 3.13063 29.155471 3.091519 29.628663 C 3.05273 30.101534 3.025481 30.575367 3.010093 31.049841 C 2.994385 31.523995 2.990538 31.998469 2.998232 32.473264 C 3.005926 32.947738 3.02516 33.421891 3.056256 33.895404 C 3.087352 34.369236 3.129988 34.841787 3.184166 35.313055 C 3.238343 35.784644 3.304061 36.25463 3.38132 36.723013 C 3.458579 37.191396 3.547378 37.657534 3.647398 38.121429 C 3.747739 38.585324 3.858978 39.046654 3.98208 39.505098 C 4.10486 39.963543 4.238861 40.418782 4.383761 40.870494 C 4.528982 41.322526 4.685103 41.770392 4.852444 42.21473 C 5.019464 42.659069 5.197383 43.098919 5.386203 43.534281 C 5.575022 43.969643 5.77442 44.400196 5.984077 44.825941 C 6.194054 45.251685 6.41429 45.671979 6.644784 46.086824 C 6.875279 46.501989 7.116031 46.910742 7.366401 47.314045 C 7.617092 47.717027 7.877399 48.113598 8.147645 48.504077 C 8.41757 48.894236 8.697112 49.277662 8.986272 49.654356 C 9.275111 50.03073 9.572926 50.40005 9.880038 50.761997 C 10.18715 51.123944 10.502917 51.478196 10.82734 51.824434 C 11.151763 52.170993 11.484521 52.509216 11.825614 52.839424 C 12.166707 53.169632 12.515494 53.490864 12.872295 53.804081 C 13.229096 54.116978 13.593591 54.420897 13.965139 54.716161 C 14.337007 55.011105 14.715928 55.296751 15.101581 55.573421 C 15.487234 55.84977 15.879619 56.116822 16.278736 56.373936 C 16.677533 56.631049 17.08242 56.878545 17.493399 57.115782 C 17.904698 57.353019 18.321126 57.580318 18.743325 57.797037 C 19.165523 58.014077 19.592851 58.220217 20.024988 58.416098 C 20.457445 58.611979 20.89439 58.79728 21.335823 58.971681 C 21.777256 59.146083 22.222537 59.309584 22.671984 59.462185 C 23.121432 59.614786 23.574406 59.756167 24.030906 59.886647 C 24.487086 60.017127 24.946471 60.136066 25.408742 60.243785 C 25.871013 60.351503 26.335527 60.448001 26.802607 60.532958 C 27.269365 60.617914 27.738368 60.691329 28.208974 60.753203 C 28.679259 60.815398 29.151147 60.865731 29.624317 60.904522 C 30.097167 60.943314 30.570978 60.970564 31.045431 60.985952 C 31.519883 61.001341 31.994336 61.005508 32.468788 60.997493 C 32.943561 60.989799 33.417373 60.970564 33.891184 60.939467 C 34.364675 60.908369 34.837204 60.865731 35.308772 60.811551 C 35.780339 60.757371 36.250303 60.691329 36.718665 60.614067 C 37.186706 60.536805 37.652824 60.448001 38.117018 60.347977 C 38.580891 60.247632 39.0422 60.136066 39.500624 60.01328 C 39.959048 59.890494 40.414266 59.756487 40.865958 59.61126 C 41.31797 59.466032 41.765814 59.309904 42.210133 59.142556 C 42.654451 58.975528 43.094282 58.79728 43.529624 58.608452 C 43.965287 58.419945 44.39582 58.220538 44.821545 58.010551 C 45.24695 57.800564 45.667225 57.580318 46.082371 57.349813 C 46.497196 57.119309 46.905931 56.878545 47.309216 56.627843 C 47.71218 56.377141 48.108732 56.116822 48.499194 55.846564 C 48.889335 55.576627 49.272744 55.297072 49.649421 55.00822 C 50.025777 54.719047 50.395081 54.421218 50.757011 54.114092 C 51.118941 53.806966 51.473178 53.491185 51.8194 53.166747 C 52.165943 52.842309 52.504151 52.509536 52.834023 52.168428 C 53.164217 51.827319 53.485754 51.478196 53.798637 51.121379 C 54.111519 50.764561 54.415425 50.400371 54.710676 50.028485 C 55.005606 49.6566 55.291559 49.277983 55.567896 48.891992 C 55.844232 48.506321 56.111272 48.113918 56.368374 47.715103 C 56.625476 47.315968 56.87264 46.911062 57.109867 46.500065 C 57.347093 46.089068 57.574381 45.672621 57.791091 45.250403 C 58.0078 44.828185 58.214251 44.401158 58.409803 43.969002 C 58.605675 43.536525 58.790968 43.099881 58.965361 42.658428 C 59.139754 42.217295 59.302928 41.771995 59.455522 41.322526 C 59.608116 40.873379 59.74949 40.420384 59.879964 39.964184 C 60.010118 39.507984 60.129052 39.048577 60.236766 38.586606 C 60.344479 38.124314 60.440973 37.659779 60.525925 37.192999 C 60.610878 36.726219 60.68429 36.257515 60.746161 35.787209 C 60.808353 35.316582 60.858683 34.844993 60.897473 34.372122 C 60.936263 33.89893 60.963191 33.425418 60.978899 32.951264 C 60.994287 32.47679 60.998134 32.002637 60.99044 31.528162 C 60.982746 31.053688 60.963511 30.579535 60.932416 30.106022 C 60.90132 29.63251 60.858683 29.16028 60.804506 28.688691 C 60.750328 28.217423 60.68461 27.747437 60.607351 27.279375 C 60.530093 26.811313 60.441293 26.345174 60.341273 25.881279 C 60.241254 25.417385 60.129693 24.956375 60.006913 24.497931 C 59.884132 24.039807 59.750131 23.584568 59.60491 23.132856 C 59.46001 22.681144 59.303889 22.232958 59.136549 21.78894 C 58.969528 21.344922 58.791609 20.905072 58.60311 20.46971 C 58.414291 20.034347 58.214892 19.603794 58.005236 19.17805 C 57.795258 18.752626 57.575343 18.332332 57.344849 17.917488 C 57.114355 17.502643 56.873923 17.09389 56.623232 16.690908 C 56.372862 16.287925 56.112555 15.891355 55.84263 15.500875 C 55.572705 15.110717 55.293162 14.72729 55.004323 14.350917 C 54.715484 13.974544 54.417669 13.605223 54.110557 13.243276 C 53.803766 12.88133 53.487998 12.527397 53.163896 12.180839 C 52.839473 11.834601 52.507036 11.496378 52.165943 11.16617 C 51.82517 10.836282 51.476063 10.51473 51.119583 10.201833 C 50.762781 9.888937 50.398607 9.584696 50.027059 9.289753 C 49.655512 8.994809 49.276591 8.708843 48.890938 8.432493 C 48.505285 8.155824 48.11322 7.889092 47.714424 7.631979 C 47.315627 7.374544 46.91074 7.127369 46.500082 6.890132 Z M 46.500082 6.890132 " stroke="#ffffff" stroke-width="2" stroke-opacity="1" stroke-miterlimit="4"/><path stroke-linecap="round" transform="matrix(8.607136, -8.62479, 8.625183, 8.606745, -103.000479, 527.466785)" fill="none" stroke-linejoin="round" d="M 44.670158 28.790015 L 51.090155 28.790018 L 51.08986 35.210014 L 44.669863 35.210011 Z M 44.670158 28.790015 " stroke="#ffffff" stroke-width="2" stroke-opacity="1" stroke-miterlimit="4"/><path stroke-linecap="round" transform="matrix(8.616164, -8.615772, 8.616164, 8.615772, -159.7793, 389.901183)" fill="none" stroke-linejoin="round" d="M 27.989999 27.990134 L 36.010173 27.989951 L 36.009991 36.010125 L 27.990043 36.010081 Z M 27.989999 27.990134 " stroke="ffffff" stroke-width="2" stroke-opacity="1" stroke-miterlimit="4"/><path stroke-linecap="round" transform="matrix(8.616164, -8.615772, 8.616164, 8.615772, -216.557959, 253.075349)" fill="none" stroke-linejoin="round" d="M 12.90986 28.789944 L 19.329853 28.790024 L 19.329934 35.210017 L 12.909941 35.209937 Z M 12.90986 28.789944 " stroke="#ffffff" stroke-width="2" stroke-opacity="1" stroke-miterlimit="4"/><path stroke-linecap="round" transform="matrix(12.185096, 0, 0, 12.184542, 1.67329, 0.00002)" fill="none" stroke-linejoin="round" d="M 32.000106 11.58999 L 43.489873 23.07002 L 39.519859 27.039894 L 32.000106 19.530058 L 24.449899 27.010079 L 20.510019 23.07002 L 29.220071 14.370152 Z M 32.000106 11.58999 " stroke="#ffffff" stroke-width="2" stroke-opacity="1" stroke-miterlimit="4"/><path stroke-linecap="round" transform="matrix(12.185096, 0, 0, 12.184542, 1.67329, 0.00002)" fill="none" stroke-linejoin="round" d="M 32.000106 52.410153 L 20.510019 40.930124 L 24.480033 36.959929 L 32.000106 44.470085 L 39.549993 36.990065 L 43.489873 40.930124 L 34.780142 49.629991 Z M 32.000106 52.410153 " stroke="#ffffff" stroke-width="2" stroke-opacity="1" stroke-miterlimit="4"/></svg>
