<svg xmlns="http://www.w3.org/2000/svg" xmlns:xlink="http://www.w3.org/1999/xlink" width="1080" zoomAndPan="magnify" viewBox="0 0 810 809.999993" height="1080" preserveAspectRatio="xMidYMid meet" version="1.0"><defs><clipPath id="65c7cb56d3"><path d="M 311 1 L 804 1 L 804 611.25 L 311 611.25 Z M 311 1 " clip-rule="nonzero"/></clipPath></defs><path fill="#ffffff" d="M 36.179688 0.546875 C 59.636719 0.851562 83.097656 1.15625 106.554688 1.457031 L 106.554688 251.628906 C 105.210938 251.558594 103.867188 251.449219 102.523438 251.402344 C 68.351562 248.640625 34.175781 247.59375 0 247.230469 L 0 0.0078125 C 12.042969 0.523438 24.105469 0.710938 36.179688 0.546875 Z M 36.179688 0.546875 " fill-opacity="1" fill-rule="nonzero"/><path fill="#ffffff" d="M 10.945312 357.03125 C 7.296875 357.359375 3.648438 357.601562 0 357.914062 L 0 610.445312 C 35.007812 607.519531 70.027344 606.40625 105.039062 606.160156 L 105.039062 345.03125 C 73.679688 351.714844 42.316406 355.765625 10.945312 357.03125 Z M 10.945312 357.03125 " fill-opacity="1" fill-rule="nonzero"/><path fill="#ffffff" d="M 560.816406 2.8125 C 522.441406 2.894531 484.0625 2.914062 445.691406 2.898438 C 432.433594 2.894531 419.175781 2.886719 405.914062 2.878906 C 394.351562 11.160156 383.242188 21.335938 372.230469 33.226562 C 291.984375 119.90625 206.042969 201.320312 122.40625 284.859375 C 118.46875 288.792969 114.210938 292.40625 106.554688 299.410156 L 106.554688 192.695312 C 105.210938 192.707031 103.867188 192.722656 102.523438 192.734375 C 68.351562 193.066406 34.175781 193.222656 0 193.273438 L 0 411.832031 C 3.648438 411.867188 7.300781 411.894531 10.945312 411.933594 C 42.316406 412.132812 73.679688 412.601562 105.035156 413.320312 L 105.035156 302.097656 C 113.179688 308.894531 118.0625 312.378906 122.25 316.558594 C 161.316406 355.535156 199.796875 395.121094 239.648438 433.269531 C 247.464844 440.753906 260.339844 446.375 271.09375 446.757812 C 313.820312 448.277344 356.636719 447.382812 402.804688 447.382812 C 352.683594 398.332031 305.464844 352.121094 257.21875 304.898438 C 361.0625 201.574219 461.042969 102.089844 560.816406 2.8125 Z M 560.816406 2.8125 " fill-opacity="1" fill-rule="nonzero"/><g clip-path="url(#65c7cb56d3)"><path fill="#ffffff" d="M 336.5 501.878906 C 423.925781 501.78125 511.367188 502.441406 598.78125 501.292969 C 648.257812 500.640625 687.984375 462.46875 694.339844 413.027344 C 700.394531 365.898438 670.269531 318.765625 623.765625 305.578125 C 608.894531 301.359375 592.65625 300.691406 577.03125 300.589844 C 499.695312 300.113281 422.355469 300.375 340.480469 300.375 C 344.933594 294.644531 346.359375 292.34375 348.21875 290.484375 C 444.230469 194.464844 540.261719 98.460938 636.394531 2.570312 C 684.613281 2.351562 732.832031 2.023438 781.046875 1.511719 C 783.882812 1.496094 786.722656 1.464844 789.558594 1.449219 C 760.328125 30.863281 733.167969 58.195312 706.035156 85.550781 C 672.121094 119.738281 638.253906 153.972656 601.917969 190.65625 C 611.542969 192.46875 616.382812 193.546875 621.273438 194.28125 C 734.042969 211.289062 809.984375 304.910156 802.796875 418.109375 C 796.0625 524.128906 704.542969 608.898438 594.234375 610.480469 C 540.5 611.25 486.730469 611.25 433.003906 610.183594 C 423.542969 609.996094 412.15625 605.035156 405.195312 598.503906 C 376.464844 571.558594 349.050781 543.210938 321.308594 515.226562 C 318.269531 512.164062 316.214844 508.132812 311.832031 501.878906 C 322.460938 501.878906 329.480469 501.886719 336.5 501.878906 Z M 336.5 501.878906 " fill-opacity="1" fill-rule="nonzero"/></g></svg>
