<svg xmlns="http://www.w3.org/2000/svg" xmlns:xlink="http://www.w3.org/1999/xlink" width="1080" zoomAndPan="magnify" viewBox="0 0 810 809.999993" height="1080" preserveAspectRatio="xMidYMid meet" version="1.0"><defs><clipPath id="1af7f4b57a"><path d="M 243 282.691406 L 286 282.691406 L 286 384 L 243 384 Z M 243 282.691406 " clip-rule="nonzero"/></clipPath><clipPath id="fb95bd64ac"><path d="M 367 283 L 565 283 L 565 527.191406 L 367 527.191406 Z M 367 283 " clip-rule="nonzero"/></clipPath></defs><g clip-path="url(#1af7f4b57a)"><path fill="#000000" d="M 257.472656 282.976562 C 266.855469 283.097656 276.238281 283.21875 285.621094 283.339844 L 285.621094 383.355469 C 285.085938 383.324219 284.546875 383.28125 284.007812 383.261719 C 270.339844 382.160156 256.671875 381.738281 243 381.597656 L 243 282.761719 C 247.816406 282.96875 252.640625 283.042969 257.472656 282.976562 Z M 257.472656 282.976562 " fill-opacity="1" fill-rule="nonzero"/></g><path fill="#000000" d="M 247.378906 425.492188 C 245.917969 425.621094 244.457031 425.71875 243 425.84375 L 243 526.800781 C 257.003906 525.628906 271.011719 525.1875 285.015625 525.085938 L 285.015625 420.695312 C 272.472656 423.367188 259.925781 424.984375 247.378906 425.492188 Z M 247.378906 425.492188 " fill-opacity="1" fill-rule="nonzero"/><path fill="#000000" d="M 467.328125 283.882812 C 451.976562 283.914062 436.625 283.921875 421.277344 283.917969 C 415.972656 283.914062 410.667969 283.914062 405.367188 283.910156 C 400.738281 287.21875 396.296875 291.289062 391.894531 296.042969 C 359.792969 330.695312 325.417969 363.242188 291.960938 396.640625 C 290.386719 398.210938 288.683594 399.65625 285.621094 402.457031 L 285.621094 359.792969 C 285.085938 359.796875 284.546875 359.804688 284.007812 359.808594 C 270.339844 359.941406 256.671875 360.003906 243 360.023438 L 243 447.398438 C 244.460938 447.414062 245.921875 447.425781 247.378906 447.4375 C 259.925781 447.519531 272.472656 447.707031 285.015625 447.996094 L 285.015625 403.53125 C 288.273438 406.246094 290.222656 407.640625 291.898438 409.3125 C 307.527344 424.894531 322.917969 440.71875 338.859375 455.96875 C 341.984375 458.960938 347.136719 461.207031 351.4375 461.363281 C 368.527344 461.96875 385.65625 461.613281 404.121094 461.613281 C 384.074219 442.003906 365.1875 423.527344 345.886719 404.648438 C 387.425781 363.34375 427.417969 323.570312 467.328125 283.882812 Z M 467.328125 283.882812 " fill-opacity="1" fill-rule="nonzero"/><g clip-path="url(#fb95bd64ac)"><path fill="#000000" d="M 377.601562 483.398438 C 412.570312 483.359375 447.546875 483.621094 482.511719 483.164062 C 502.304688 482.902344 518.195312 467.640625 520.734375 447.878906 C 523.15625 429.035156 511.105469 410.195312 492.507812 404.921875 C 486.558594 403.234375 480.0625 402.96875 473.8125 402.929688 C 442.878906 402.738281 411.941406 402.839844 379.191406 402.839844 C 380.972656 400.550781 381.542969 399.628906 382.289062 398.886719 C 420.691406 360.5 459.105469 322.121094 497.558594 283.785156 C 516.84375 283.699219 536.132812 283.566406 555.417969 283.363281 C 556.554688 283.355469 557.6875 283.34375 558.824219 283.335938 C 547.132812 295.097656 536.265625 306.023438 525.414062 316.957031 C 511.847656 330.625 498.300781 344.3125 483.765625 358.976562 C 487.617188 359.703125 489.554688 360.132812 491.507812 360.425781 C 536.617188 367.226562 566.996094 404.652344 564.117188 449.910156 C 561.425781 492.292969 524.816406 526.183594 480.695312 526.8125 C 459.199219 527.121094 437.691406 527.121094 416.203125 526.695312 C 412.417969 526.621094 407.863281 524.636719 405.078125 522.027344 C 393.585938 511.253906 382.621094 499.921875 371.523438 488.734375 C 370.308594 487.511719 369.484375 485.898438 367.734375 483.398438 C 371.984375 483.398438 374.792969 483.402344 377.601562 483.398438 Z M 377.601562 483.398438 " fill-opacity="1" fill-rule="nonzero"/></g></svg>