<svg xmlns="http://www.w3.org/2000/svg" xmlns:xlink="http://www.w3.org/1999/xlink" width="1080" zoomAndPan="magnify" viewBox="0 0 810 809.999993" height="1080" preserveAspectRatio="xMidYMid meet" version="1.0"><defs><clipPath id="e3129d76cd"><path d="M 0 0 L 809 0 L 809 807.75 L 0 807.75 Z M 0 0 " clip-rule="nonzero"/></clipPath></defs><g clip-path="url(#e3129d76cd)"><path fill="#345D9D" d="M 404.921875 0 C 628.089844 0 808.90625 180.925781 808.90625 403.875 C 808.90625 605.890625 627.929688 807.75 404.921875 807.75 C 181.910156 807.75 0.933594 626.980469 0.933594 403.875 C 0.933594 180.769531 181.910156 0 404.921875 0 Z M 404.921875 0 " fill-opacity="1" fill-rule="nonzero"/><path fill="#345D9D" d="M 404.921875 0 C 181.910156 0 0.933594 180.925781 0.933594 403.875 C 0.933594 626.824219 181.910156 807.75 404.921875 807.75 C 627.929688 807.75 808.90625 605.734375 808.90625 403.875 C 809.066406 180.925781 628.089844 0 404.921875 0 Z M 404.921875 0 " fill-opacity="1" fill-rule="nonzero"/></g><path fill="#ffffff" d="M 362.886719 512.652344 L 392.390625 409.265625 L 463.765625 385.324219 L 463.765625 321.894531 L 412.375 339.019531 L 456.3125 185.050781 L 363.046875 185.050781 L 309.277344 373.746094 L 230.128906 400.386719 L 230.128906 463.8125 L 289.132812 443.992188 L 244.5625 600.660156 L 554.808594 600.660156 L 579.871094 512.652344 Z M 362.886719 512.652344 " fill-opacity="1" fill-rule="nonzero"/></svg>
